<svg width="96" height="96" xmlns="http://www.w3.org/2000/svg" xmlns:xlink="http://www.w3.org/1999/xlink" xml:space="preserve" overflow="hidden"><g transform="translate(-103 -345)"><path d="M113 379 120 379 120 383 113 383Z"/><path d="M113 371 120 371 120 375 113 375Z"/><path d="M113 387 120 387 120 391 113 391Z"/><path d="M113 411 120 411 120 415 113 415Z"/><path d="M113 403 120 403 120 407 113 407Z"/><path d="M113 395 120 395 120 399 113 399Z"/><path d="M182 403 189 403 189 407 182 407Z"/><path d="M182 411 189 411 189 415 182 415Z"/><path d="M182 395 189 395 189 399 182 399Z"/><path d="M182 371 189 371 189 375 182 375Z"/><path d="M182 387 189 387 189 391 182 391Z"/><path d="M182 379 189 379 189 383 182 383Z"/><path d="M153 355 157 355 157 362 153 362Z"/><path d="M169 355 173 355 173 362 169 362Z"/><path d="M161 355 165 355 165 362 161 362Z"/><path d="M145 355 149 355 149 362 145 362Z"/><path d="M129 355 133 355 133 362 129 362Z"/><path d="M137 355 141 355 141 362 137 362Z"/><path d="M137 424 141 424 141 431 137 431Z"/><path d="M129 424 133 424 133 431 129 431Z"/><path d="M145 424 149 424 149 431 145 431Z"/><path d="M153 424 157 424 157 431 153 431Z"/><path d="M161 424 165 424 165 431 161 431Z"/><path d="M169 424 173 424 173 431 169 431Z"/><path d="M138 380 164 380 164 406 138 406Z"/><path d="M174 366 128 366C125.791 366 124 367.791 124 370L124 416C124 418.209 125.791 420 128 420L174 420C176.209 420 178 418.209 178 416L178 370C178 367.791 176.209 366 174 366ZM168 410 134 410 134 376 168 376Z"/></g></svg>